<?xml version="1.0" encoding="utf-8"?>
<!-- Generator: Adobe Illustrator 17.1.0, SVG Export Plug-In . SVG Version: 6.00 Build 0)  -->
<!DOCTYPE svg PUBLIC "-//W3C//DTD SVG 1.1//EN" "http://www.w3.org/Graphics/SVG/1.1/DTD/svg11.dtd">
<svg version="1.1" id="Layer_1" xmlns="http://www.w3.org/2000/svg" xmlns:xlink="http://www.w3.org/1999/xlink" x="0px" y="0px"
	 viewBox="0 0 283.465 283.465" enable-background="new 0 0 283.465 283.465" xml:space="preserve">
<g>
	<g>
		<path fill="#FFA534" d="M27.405,185.439c6.011,15.604,15.11,29.672,26.585,41.424v-74.944
			C42.813,163.159,34.093,174.775,27.405,185.439z"/>
		<path fill="#FFCE38" d="M53.99,151.919V56.475C32.516,78.46,19.263,108.509,19.263,141.67c0,15.437,2.906,30.18,8.141,43.769
			C34.093,174.775,42.813,163.159,53.99,151.919z"/>
		<path fill="#F51B26" d="M77.813,141.67c0-3.61,0.326-7.139,0.908-10.584c-9.34,6.554-17.548,13.612-24.731,20.834v74.944
			c9.973,10.207,21.705,18.683,34.73,24.906v-74.539C81.838,167.088,77.813,154.848,77.813,141.67z"/>
		<path fill="#FA732D" d="M78.721,131.085c1.536-9.134,5.001-17.612,9.999-24.978v-74.54C75.694,37.79,63.962,46.267,53.99,56.475
			v95.445C61.172,144.697,69.381,137.639,78.721,131.085z"/>
		<path fill="#C265A4" d="M123.444,80.802V21.014c-12.263,1.79-23.933,5.399-34.725,10.554v74.54
			C96.9,94.052,109.125,84.977,123.444,80.802z"/>
		<path fill="#94298C" d="M88.72,177.229v74.539c10.791,5.157,22.461,8.764,34.725,10.558v-59.791
			C109.125,198.362,96.9,189.283,88.72,177.229z"/>
		<path fill="#0B4196" d="M141.224,205.079c-6.174,0-12.133-0.897-17.78-2.543v59.791c5.806,0.849,11.74,1.302,17.78,1.302
			c5.758,0,11.412-0.426,16.955-1.199v-59.658C152.78,204.265,147.1,205.079,141.224,205.079z"/>
		<path fill="#0476B8" d="M141.224,78.256c5.876,0,11.556,0.815,16.955,2.31V20.908c-5.543-0.772-11.197-1.2-16.955-1.2
			c-6.04,0-11.974,0.458-17.78,1.306v59.788C129.091,79.156,135.051,78.256,141.224,78.256z"/>
		<path fill="#0096CF" d="M185.119,95.98c2.561-0.155,5.159-0.272,7.79-0.354V31.196c-10.809-5.065-22.475-8.585-34.73-10.288
			v59.658C168.455,83.411,177.652,88.802,185.119,95.98z"/>
		<path fill="#0076B8" d="M192.909,104.949v-9.322c-2.631,0.082-5.229,0.199-7.79,0.354
			C187.976,98.726,190.604,101.71,192.909,104.949z"/>
		<path fill="#0076B8" d="M158.179,202.771v59.658c12.255-1.706,23.921-5.22,34.73-10.289v-73.751
			C184.579,190.089,172.383,198.837,158.179,202.771z"/>
		<path fill="#55C2EB" d="M227.642,96.629V55.613c-10.001-10.04-21.751-18.331-34.733-24.417v64.431
			C203.859,95.289,215.429,95.593,227.642,96.629z"/>
		<path fill="#00ABDE" d="M192.909,95.627v9.322c7.375,10.365,11.73,23.03,11.73,36.721c0,13.69-4.354,26.355-11.73,36.719v73.751
			c12.982-6.087,24.732-14.376,34.733-24.419V96.629C215.429,95.593,203.859,95.289,192.909,95.627z"/>
		<path fill="#C2D75D" d="M255.899,100.183c-6.111-16.904-15.824-32.084-28.257-44.57v41.016
			C236.701,97.4,246.113,98.568,255.899,100.183z"/>
		<g>
			<path fill="#8CC650" d="M262.369,127.727c-1.086-9.564-3.304-18.781-6.471-27.544c-9.786-1.616-19.197-2.784-28.257-3.554
				v131.093c18.877-18.957,31.54-44.095,34.727-72.11c0.521-4.58,0.816-9.224,0.816-13.942
				C263.186,136.95,262.89,132.305,262.369,127.727z"/>
		</g>
	</g>
</g>
</svg>
